<?xml version="1.0" standalone="no"?>
<svg xmlns="http://www.w3.org/2000/svg" viewBox="0 0 243.56000000000003 117.48" width="243.56000000000003" height="117.48"><rect fill="none" stroke="#bba364" stroke-width="4" width="239.56000000000003" height="113.48" x="2" y="2"></rect><g fill="#0a1256" color="#0a1256" transform="translate(96.781 12) scale(0.8333334)"><svg width="60.0" height="60.0" x="0.0" y="0.0" viewBox="0 0 60 60"><g><path d="M59,60.5H1c-0.553,0-1-0.447-1-1v-6c0-0.553,0.447-1,1-1h58c0.553,0,1,0.447,1,1v6C60,60.053,59.553,60.5,59,60.5z M2,58.5   h56v-4H2V58.5z"></path><path d="M57,54.5H3c-0.553,0-1-0.447-1-1v-6c0-0.553,0.447-1,1-1h54c0.553,0,1,0.447,1,1v6C58,54.053,57.553,54.5,57,54.5z M4,52.5   h52v-4H4V52.5z"></path><path d="M57,23.5H3c-0.553,0-1-0.447-1-1v-4c0-0.553,0.447-1,1-1h54c0.553,0,1,0.447,1,1v4C58,23.053,57.553,23.5,57,23.5z M4,21.5   h52v-2H4V21.5z"></path><path d="M59,19.5H1c-0.445,0-0.839-0.296-0.962-0.727c-0.122-0.43,0.055-0.889,0.435-1.123l29-18c0.322-0.201,0.732-0.201,1.055,0   l29,18c0.381,0.234,0.557,0.693,0.436,1.123C59.838,19.204,59.445,19.5,59,19.5z M4.507,17.5h50.985L30,1.677L4.507,17.5z"></path><path d="M13,27.5H5c-0.553,0-1-0.447-1-1v-4c0-0.553,0.447-1,1-1h8c0.553,0,1,0.447,1,1v4C14,27.053,13.552,27.5,13,27.5z M6,25.5   h6v-2H6V25.5z"></path><path d="M55,27.5h-8c-0.553,0-1-0.447-1-1v-4c0-0.553,0.447-1,1-1h8c0.553,0,1,0.447,1,1v4C56,27.053,55.553,27.5,55,27.5z    M48,25.5h6v-2h-6V25.5z"></path><path d="M34,27.5h-8c-0.553,0-1-0.447-1-1v-4c0-0.553,0.447-1,1-1h8c0.553,0,1,0.447,1,1v4C35,27.053,34.553,27.5,34,27.5z    M27,25.5h6v-2h-6V25.5z"></path><path d="M13,48.5H5c-0.553,0-1-0.447-1-1v-4c0-0.553,0.447-1,1-1h8c0.553,0,1,0.447,1,1v4C14,48.053,13.552,48.5,13,48.5z M6,46.5   h6v-2H6V46.5z"></path><path d="M55,48.5h-8c-0.553,0-1-0.447-1-1v-4c0-0.553,0.447-1,1-1h8c0.553,0,1,0.447,1,1v4C56,48.053,55.553,48.5,55,48.5z    M48,46.5h6v-2h-6V46.5z"></path><path d="M34,48.5h-8c-0.553,0-1-0.447-1-1v-4c0-0.553,0.447-1,1-1h8c0.553,0,1,0.447,1,1v4C35,48.053,34.553,48.5,34,48.5z    M27,46.5h6v-2h-6V46.5z"></path><path d="M12,44.5H6c-0.553,0-1-0.447-1-1v-17c0-0.553,0.447-1,1-1h6c0.553,0,1,0.447,1,1v17C13,44.053,12.552,44.5,12,44.5z    M7,42.5h4v-15H7V42.5z"></path><path d="M33,44.5h-6c-0.553,0-1-0.447-1-1v-17c0-0.553,0.447-1,1-1h6c0.553,0,1,0.447,1,1v17C34,44.053,33.553,44.5,33,44.5z    M28,42.5h4v-15h-4V42.5z"></path><path d="M54,44.5h-6c-0.553,0-1-0.447-1-1v-17c0-0.553,0.447-1,1-1h6c0.553,0,1,0.447,1,1v17C55,44.053,54.553,44.5,54,44.5z    M49,42.5h4v-15h-4V42.5z"></path><g><path d="M30,15.5c-1.654,0-3-1.346-3-3c0-0.553,0.447-1,1-1s1,0.447,1,1c0,0.552,0.448,1,1,1c0.551,0,1-0.448,1-1s-0.449-1-1-1    c-1.654,0-3-1.346-3-3s1.346-3,3-3c1.655,0,3,1.346,3,3c0,0.553-0.447,1-1,1s-1-0.447-1-1c0-0.552-0.449-1-1-1    c-0.552,0-1,0.448-1,1s0.448,1,1,1c1.655,0,3,1.346,3,3S31.654,15.5,30,15.5z"></path><path d="M30,7.5c-0.553,0-1-0.447-1-1v-1c0-0.553,0.447-1,1-1c0.553,0,1,0.447,1,1v1C31,7.053,30.553,7.5,30,7.5z"></path><path d="M30,16.5c-0.553,0-1-0.447-1-1v-1c0-0.553,0.447-1,1-1c0.553,0,1,0.447,1,1v1C31,16.053,30.553,16.5,30,16.5z"></path></g></g></svg></g><path fill="#0a1256" fill-rule="nonzero" d="M29.96 0Q34.76 0 37.44 2.76Q40.12 5.52 40.12 10.76L40.12 10.76L40.12 28.24L37.20 28.24L37.20 10.84Q37.20 6.76 35.14 4.70Q33.08 2.64 29.52 2.64L29.52 2.64Q25.76 2.64 23.64 4.82Q21.52 7 21.52 11.48L21.52 11.48L21.52 28.24L18.60 28.24L18.60 10.84Q18.60 6.76 16.60 4.70Q14.60 2.64 11.04 2.64L11.04 2.64Q7.24 2.64 5.10 4.82Q2.96 7 2.96 11.48L2.96 11.48L2.96 28.24L0 28.24L0 0.24L2.84 0.24L2.84 4.92Q4 2.52 6.28 1.26Q8.56 0 11.68 0L11.68 0Q14.96 0 17.30 1.38Q19.64 2.76 20.68 5.24L20.68 5.24Q21.88 2.68 24.30 1.34Q26.72 0 29.96 0L29.96 0ZM60.52 2.80L54.84 2.80L54.84 25.68L60.52 25.68L60.52 28.24L46.24 28.24L46.24 25.68L51.92 25.68L51.92 2.80L46.24 2.80L46.24 0.24L60.52 0.24L60.52 2.80ZM79.16 0Q84.20 0 87.06 3Q89.92 6 89.92 11.56L89.92 11.56L89.92 28.24L86.96 28.24L86.96 11.64Q86.96 7.20 84.76 4.92Q82.56 2.64 78.60 2.64L78.60 2.64Q74.44 2.64 72.12 5.06Q69.80 7.48 69.80 12.32L69.80 12.32L69.80 28.24L66.84 28.24L66.84 0.24L69.68 0.24L69.68 4.96Q72.36 0 79.16 0L79.16 0ZM98.80 28.24L98.80 0.24L110.20 0.24Q114.64 0.24 118.04 2.02Q121.44 3.80 123.32 6.98Q125.20 10.16 125.20 14.24L125.20 14.24Q125.20 18.32 123.32 21.50Q121.44 24.68 118.04 26.46Q114.64 28.24 110.20 28.24L110.20 28.24L98.80 28.24ZM101.76 25.68L110.04 25.68Q113.72 25.68 116.48 24.22Q119.24 22.76 120.76 20.18Q122.28 17.60 122.28 14.24L122.28 14.24Q122.28 10.88 120.76 8.30Q119.24 5.72 116.48 4.26Q113.72 2.80 110.04 2.80L110.04 2.80L101.76 2.80L101.76 25.68ZM152.32 0.24L155.24 0.24L155.24 28.24L152.32 28.24L152.32 15.32L134.80 15.32L134.80 28.24L131.84 28.24L131.84 0.24L134.80 0.24L134.80 12.72L152.32 12.72L152.32 0.24ZM184.08 0.24L187.04 0.24L187.04 28.24L184.20 28.24L184.20 23.52Q181.44 28.48 174.80 28.48L174.80 28.48Q169.80 28.48 166.96 25.48Q164.12 22.48 164.12 16.92L164.12 16.92L164.12 0.24L167.08 0.24L167.08 16.84Q167.08 21.28 169.26 23.56Q171.44 25.84 175.36 25.84L175.36 25.84Q179.48 25.84 181.78 23.42Q184.08 21 184.08 16.16L184.08 16.16L184.08 0.24ZM213.80 13.80Q216.56 14.40 218.06 16.18Q219.56 17.96 219.56 20.76L219.56 20.76Q219.56 24.36 216.90 26.30Q214.24 28.24 209.04 28.24L209.04 28.24L196.16 28.24L196.16 0.24L208.24 0.24Q212.92 0.24 215.50 2.12Q218.08 4 218.08 7.44L218.08 7.44Q218.08 9.76 216.94 11.38Q215.80 13.00 213.80 13.80L213.80 13.80ZM208.04 2.68L199.12 2.68L199.12 12.84L208.04 12.84Q211.44 12.84 213.28 11.54Q215.12 10.24 215.12 7.76L215.12 7.76Q215.12 5.28 213.28 3.98Q211.44 2.68 208.04 2.68L208.04 2.68ZM209.00 25.80Q212.76 25.80 214.68 24.52Q216.60 23.24 216.60 20.52L216.60 20.52Q216.60 15.28 209.00 15.28L209.00 15.28L199.12 15.28L199.12 25.80L209.00 25.80Z" transform="translate(12 77) scale(1)"></path></svg>