<?xml version="1.0" standalone="no"?>
<svg xmlns="http://www.w3.org/2000/svg" viewBox="0 0 93 70" width="93" height="70"><g fill="#bba364" color="#bba364" transform="translate(24.477 0) scale(0.7333334) "><svg width="60.0" height="60.0" x="0.0" y="0.0" viewBox="0 0 60 60"><g><path d="M59,60.5H1c-0.553,0-1-0.447-1-1v-6c0-0.553,0.447-1,1-1h58c0.553,0,1,0.447,1,1v6C60,60.053,59.553,60.5,59,60.5z M2,58.5   h56v-4H2V58.5z"></path><path d="M57,54.5H3c-0.553,0-1-0.447-1-1v-6c0-0.553,0.447-1,1-1h54c0.553,0,1,0.447,1,1v6C58,54.053,57.553,54.5,57,54.5z M4,52.5   h52v-4H4V52.5z"></path><path d="M57,23.5H3c-0.553,0-1-0.447-1-1v-4c0-0.553,0.447-1,1-1h54c0.553,0,1,0.447,1,1v4C58,23.053,57.553,23.5,57,23.5z M4,21.5   h52v-2H4V21.5z"></path><path d="M59,19.5H1c-0.445,0-0.839-0.296-0.962-0.727c-0.122-0.43,0.055-0.889,0.435-1.123l29-18c0.322-0.201,0.732-0.201,1.055,0   l29,18c0.381,0.234,0.557,0.693,0.436,1.123C59.838,19.204,59.445,19.5,59,19.5z M4.507,17.5h50.985L30,1.677L4.507,17.5z"></path><path d="M13,27.5H5c-0.553,0-1-0.447-1-1v-4c0-0.553,0.447-1,1-1h8c0.553,0,1,0.447,1,1v4C14,27.053,13.552,27.5,13,27.5z M6,25.5   h6v-2H6V25.5z"></path><path d="M55,27.5h-8c-0.553,0-1-0.447-1-1v-4c0-0.553,0.447-1,1-1h8c0.553,0,1,0.447,1,1v4C56,27.053,55.553,27.5,55,27.5z    M48,25.5h6v-2h-6V25.5z"></path><path d="M34,27.5h-8c-0.553,0-1-0.447-1-1v-4c0-0.553,0.447-1,1-1h8c0.553,0,1,0.447,1,1v4C35,27.053,34.553,27.5,34,27.5z    M27,25.5h6v-2h-6V25.5z"></path><path d="M13,48.5H5c-0.553,0-1-0.447-1-1v-4c0-0.553,0.447-1,1-1h8c0.553,0,1,0.447,1,1v4C14,48.053,13.552,48.5,13,48.5z M6,46.5   h6v-2H6V46.5z"></path><path d="M55,48.5h-8c-0.553,0-1-0.447-1-1v-4c0-0.553,0.447-1,1-1h8c0.553,0,1,0.447,1,1v4C56,48.053,55.553,48.5,55,48.5z    M48,46.5h6v-2h-6V46.5z"></path><path d="M34,48.5h-8c-0.553,0-1-0.447-1-1v-4c0-0.553,0.447-1,1-1h8c0.553,0,1,0.447,1,1v4C35,48.053,34.553,48.5,34,48.5z    M27,46.5h6v-2h-6V46.5z"></path><path d="M12,44.5H6c-0.553,0-1-0.447-1-1v-17c0-0.553,0.447-1,1-1h6c0.553,0,1,0.447,1,1v17C13,44.053,12.552,44.5,12,44.5z    M7,42.5h4v-15H7V42.5z"></path><path d="M33,44.5h-6c-0.553,0-1-0.447-1-1v-17c0-0.553,0.447-1,1-1h6c0.553,0,1,0.447,1,1v17C34,44.053,33.553,44.5,33,44.5z    M28,42.5h4v-15h-4V42.5z"></path><path d="M54,44.5h-6c-0.553,0-1-0.447-1-1v-17c0-0.553,0.447-1,1-1h6c0.553,0,1,0.447,1,1v17C55,44.053,54.553,44.5,54,44.5z    M49,42.5h4v-15h-4V42.5z"></path><g><path d="M30,15.5c-1.654,0-3-1.346-3-3c0-0.553,0.447-1,1-1s1,0.447,1,1c0,0.552,0.448,1,1,1c0.551,0,1-0.448,1-1s-0.449-1-1-1    c-1.654,0-3-1.346-3-3s1.346-3,3-3c1.655,0,3,1.346,3,3c0,0.553-0.447,1-1,1s-1-0.447-1-1c0-0.552-0.449-1-1-1    c-0.552,0-1,0.448-1,1s0.448,1,1,1c1.655,0,3,1.346,3,3S31.654,15.5,30,15.5z"></path><path d="M30,7.5c-0.553,0-1-0.447-1-1v-1c0-0.553,0.447-1,1-1c0.553,0,1,0.447,1,1v1C31,7.053,30.553,7.5,30,7.5z"></path><path d="M30,16.5c-0.553,0-1-0.447-1-1v-1c0-0.553,0.447-1,1-1c0.553,0,1,0.447,1,1v1C31,16.053,30.553,16.5,30,16.5z"></path></g></g></svg></g><path fill="#0a1256" fill-rule="nonzero" d="M8.78 17.09Q6.29 17.09 4.28 15.98Q2.28 14.88 1.14 12.92Q0 10.97 0 8.54L0 8.54Q0 6.12 1.14 4.16Q2.28 2.21 4.30 1.10Q6.31 0 8.81 0L8.81 0Q10.68 0 12.26 0.62Q13.85 1.25 14.95 2.45L14.95 2.45L13.82 3.58Q11.86 1.58 8.86 1.58L8.86 1.58Q6.86 1.58 5.23 2.50Q3.60 3.41 2.68 4.99Q1.75 6.58 1.75 8.54L1.75 8.54Q1.75 10.51 2.68 12.10Q3.60 13.68 5.23 14.59Q6.86 15.50 8.86 15.50L8.86 15.50Q11.88 15.50 13.82 13.49L13.82 13.49L14.95 14.62Q13.85 15.82 12.25 16.45Q10.66 17.09 8.78 17.09L8.78 17.09ZM32.16 16.94L30.22 16.94L26.38 11.54Q25.73 11.62 25.03 11.62L25.03 11.62L20.52 11.62L20.52 16.94L18.74 16.94L18.74 0.14L25.03 0.14Q28.25 0.14 30.07 1.68Q31.90 3.22 31.90 5.90L31.90 5.90Q31.90 7.87 30.90 9.23Q29.90 10.58 28.06 11.18L28.06 11.18L32.16 16.94ZM24.98 10.10Q27.48 10.10 28.80 9Q30.12 7.90 30.12 5.90L30.12 5.90Q30.12 3.86 28.80 2.77Q27.48 1.68 24.98 1.68L24.98 1.68L20.52 1.68L20.52 10.10L24.98 10.10ZM47.42 13.68L48.10 15.02Q47.06 16.01 45.35 16.55Q43.63 17.09 41.54 17.09L41.54 17.09Q39.34 17.09 37.79 16.49Q36.24 15.89 35.46 14.83Q34.68 13.78 34.68 12.41L34.68 12.41Q34.68 10.90 35.58 9.84Q36.48 8.78 37.94 8.38L37.94 8.38Q36.74 7.92 36.07 6.92Q35.40 5.93 35.40 4.58L35.40 4.58Q35.40 3.31 36.13 2.27Q36.86 1.22 38.34 0.61Q39.82 0 41.90 0L41.90 0Q43.44 0 44.89 0.35Q46.34 0.70 47.38 1.34L47.38 1.34L46.82 2.76Q44.62 1.51 41.98 1.51L41.98 1.51Q39.65 1.51 38.41 2.40Q37.18 3.29 37.18 4.70L37.18 4.70Q37.18 6.12 38.17 6.89Q39.17 7.66 40.99 7.66L40.99 7.66L45.17 7.66L45.17 9.19L40.92 9.19Q38.86 9.19 37.66 9.97Q36.46 10.75 36.46 12.29L36.46 12.29Q36.46 13.80 37.76 14.69Q39.07 15.58 41.62 15.58L41.62 15.58Q43.39 15.58 44.93 15.07Q46.46 14.57 47.42 13.68L47.42 13.68ZM51.31 16.94L51.31 0.14L58.15 0.14Q60.82 0.14 62.86 1.21Q64.90 2.28 66.02 4.19Q67.15 6.10 67.15 8.54L67.15 8.54Q67.15 10.99 66.02 12.90Q64.90 14.81 62.86 15.88Q60.82 16.94 58.15 16.94L58.15 16.94L51.31 16.94ZM53.09 15.41L58.06 15.41Q60.26 15.41 61.92 14.53Q63.58 13.66 64.49 12.11Q65.40 10.56 65.40 8.54L65.40 8.54Q65.40 6.53 64.49 4.98Q63.58 3.43 61.92 2.56Q60.26 1.68 58.06 1.68L58.06 1.68L53.09 1.68L53.09 15.41ZM77.90 1.68L74.50 1.68L74.50 15.41L77.90 15.41L77.90 16.94L69.34 16.94L69.34 15.41L72.74 15.41L72.74 1.68L69.34 1.68L69.34 0.14L77.90 0.14L77.90 1.68ZM92.95 1.85L92.30 3.24Q89.83 1.80 86.83 1.58L86.83 1.58L86.83 16.94L85.06 16.94L85.06 1.58Q82.10 1.78 79.56 3.24L79.56 3.24L78.91 1.85Q82.03 0 85.92 0L85.92 0Q89.88 0 92.95 1.85L92.95 1.85Z" transform="translate(0, 52)"></path></svg>