<?xml version="1.0" standalone="no"?>
<svg xmlns="http://www.w3.org/2000/svg" viewBox="0 0 180.11999999999998 117.48" width="180.11999999999998" height="117.48"><rect fill="none" stroke="#bba364" stroke-width="4" width="176.11999999999998" height="113.48" x="2" y="2"></rect><g fill="#0a1256" color="#0a1256" transform="translate(65.06 12) scale(0.8333334)"><svg width="60.0" height="60.0" x="0.0" y="0.0" viewBox="0 0 60 60"><g><path d="M59,60.5H1c-0.553,0-1-0.447-1-1v-6c0-0.553,0.447-1,1-1h58c0.553,0,1,0.447,1,1v6C60,60.053,59.553,60.5,59,60.5z M2,58.5   h56v-4H2V58.5z"></path><path d="M57,54.5H3c-0.553,0-1-0.447-1-1v-6c0-0.553,0.447-1,1-1h54c0.553,0,1,0.447,1,1v6C58,54.053,57.553,54.5,57,54.5z M4,52.5   h52v-4H4V52.5z"></path><path d="M57,23.5H3c-0.553,0-1-0.447-1-1v-4c0-0.553,0.447-1,1-1h54c0.553,0,1,0.447,1,1v4C58,23.053,57.553,23.5,57,23.5z M4,21.5   h52v-2H4V21.5z"></path><path d="M59,19.5H1c-0.445,0-0.839-0.296-0.962-0.727c-0.122-0.43,0.055-0.889,0.435-1.123l29-18c0.322-0.201,0.732-0.201,1.055,0   l29,18c0.381,0.234,0.557,0.693,0.436,1.123C59.838,19.204,59.445,19.5,59,19.5z M4.507,17.5h50.985L30,1.677L4.507,17.5z"></path><path d="M13,27.5H5c-0.553,0-1-0.447-1-1v-4c0-0.553,0.447-1,1-1h8c0.553,0,1,0.447,1,1v4C14,27.053,13.552,27.5,13,27.5z M6,25.5   h6v-2H6V25.5z"></path><path d="M55,27.5h-8c-0.553,0-1-0.447-1-1v-4c0-0.553,0.447-1,1-1h8c0.553,0,1,0.447,1,1v4C56,27.053,55.553,27.5,55,27.5z    M48,25.5h6v-2h-6V25.5z"></path><path d="M34,27.5h-8c-0.553,0-1-0.447-1-1v-4c0-0.553,0.447-1,1-1h8c0.553,0,1,0.447,1,1v4C35,27.053,34.553,27.5,34,27.5z    M27,25.5h6v-2h-6V25.5z"></path><path d="M13,48.5H5c-0.553,0-1-0.447-1-1v-4c0-0.553,0.447-1,1-1h8c0.553,0,1,0.447,1,1v4C14,48.053,13.552,48.5,13,48.5z M6,46.5   h6v-2H6V46.5z"></path><path d="M55,48.5h-8c-0.553,0-1-0.447-1-1v-4c0-0.553,0.447-1,1-1h8c0.553,0,1,0.447,1,1v4C56,48.053,55.553,48.5,55,48.5z    M48,46.5h6v-2h-6V46.5z"></path><path d="M34,48.5h-8c-0.553,0-1-0.447-1-1v-4c0-0.553,0.447-1,1-1h8c0.553,0,1,0.447,1,1v4C35,48.053,34.553,48.5,34,48.5z    M27,46.5h6v-2h-6V46.5z"></path><path d="M12,44.5H6c-0.553,0-1-0.447-1-1v-17c0-0.553,0.447-1,1-1h6c0.553,0,1,0.447,1,1v17C13,44.053,12.552,44.5,12,44.5z    M7,42.5h4v-15H7V42.5z"></path><path d="M33,44.5h-6c-0.553,0-1-0.447-1-1v-17c0-0.553,0.447-1,1-1h6c0.553,0,1,0.447,1,1v17C34,44.053,33.553,44.5,33,44.5z    M28,42.5h4v-15h-4V42.5z"></path><path d="M54,44.5h-6c-0.553,0-1-0.447-1-1v-17c0-0.553,0.447-1,1-1h6c0.553,0,1,0.447,1,1v17C55,44.053,54.553,44.5,54,44.5z    M49,42.5h4v-15h-4V42.5z"></path><g><path d="M30,15.5c-1.654,0-3-1.346-3-3c0-0.553,0.447-1,1-1s1,0.447,1,1c0,0.552,0.448,1,1,1c0.551,0,1-0.448,1-1s-0.449-1-1-1    c-1.654,0-3-1.346-3-3s1.346-3,3-3c1.655,0,3,1.346,3,3c0,0.553-0.447,1-1,1s-1-0.447-1-1c0-0.552-0.449-1-1-1    c-0.552,0-1,0.448-1,1s0.448,1,1,1c1.655,0,3,1.346,3,3S31.654,15.5,30,15.5z"></path><path d="M30,7.5c-0.553,0-1-0.447-1-1v-1c0-0.553,0.447-1,1-1c0.553,0,1,0.447,1,1v1C31,7.053,30.553,7.5,30,7.5z"></path><path d="M30,16.5c-0.553,0-1-0.447-1-1v-1c0-0.553,0.447-1,1-1c0.553,0,1,0.447,1,1v1C31,16.053,30.553,16.5,30,16.5z"></path></g></g></svg></g><path fill="#0a1256" fill-rule="nonzero" d="M0 28.24L0 0.24L11.40 0.24Q15.84 0.24 19.24 2.02Q22.64 3.80 24.52 6.98Q26.40 10.16 26.40 14.24L26.40 14.24Q26.40 18.32 24.52 21.50Q22.64 24.68 19.24 26.46Q15.84 28.24 11.40 28.24L11.40 28.24L0 28.24ZM2.96 25.68L11.24 25.68Q14.92 25.68 17.68 24.22Q20.44 22.76 21.96 20.18Q23.48 17.60 23.48 14.24L23.48 14.24Q23.48 10.88 21.96 8.30Q20.44 5.72 17.68 4.26Q14.92 2.80 11.24 2.80L11.24 2.80L2.96 2.80L2.96 25.68ZM51.92 22.80L53.04 25.04Q51.32 26.68 48.46 27.58Q45.60 28.48 42.12 28.48L42.12 28.48Q38.44 28.48 35.86 27.48Q33.28 26.48 31.98 24.72Q30.68 22.96 30.68 20.68L30.68 20.68Q30.68 18.16 32.18 16.40Q33.68 14.64 36.12 13.96L36.12 13.96Q34.12 13.20 33 11.54Q31.88 9.88 31.88 7.64L31.88 7.64Q31.88 5.52 33.10 3.78Q34.32 2.04 36.78 1.02Q39.24 0 42.72 0L42.72 0Q45.28 0 47.70 0.58Q50.12 1.16 51.84 2.24L51.84 2.24L50.92 4.60Q47.24 2.52 42.84 2.52L42.84 2.52Q38.96 2.52 36.90 4Q34.84 5.48 34.84 7.84L34.84 7.84Q34.84 10.20 36.50 11.48Q38.16 12.76 41.20 12.76L41.20 12.76L48.16 12.76L48.16 15.32L41.08 15.32Q37.64 15.32 35.64 16.62Q33.64 17.92 33.64 20.48L33.64 20.48Q33.64 23 35.82 24.48Q38 25.96 42.24 25.96L42.24 25.96Q45.20 25.96 47.76 25.12Q50.32 24.28 51.92 22.80L51.92 22.80ZM76.04 13.80Q78.80 14.40 80.30 16.18Q81.80 17.96 81.80 20.76L81.80 20.76Q81.80 24.36 79.14 26.30Q76.48 28.24 71.28 28.24L71.28 28.24L58.40 28.24L58.40 0.24L70.48 0.24Q75.16 0.24 77.74 2.12Q80.32 4 80.32 7.44L80.32 7.44Q80.32 9.76 79.18 11.38Q78.04 13.00 76.04 13.80L76.04 13.80ZM70.28 2.68L61.36 2.68L61.36 12.84L70.28 12.84Q73.68 12.84 75.52 11.54Q77.36 10.24 77.36 7.76L77.36 7.76Q77.36 5.28 75.52 3.98Q73.68 2.68 70.28 2.68L70.28 2.68ZM71.24 25.80Q75 25.80 76.92 24.52Q78.84 23.24 78.84 20.52L78.84 20.52Q78.84 15.28 71.24 15.28L71.24 15.28L61.36 15.28L61.36 25.80L71.24 25.80ZM100.04 2.80L94.36 2.80L94.36 25.68L100.04 25.68L100.04 28.24L85.76 28.24L85.76 25.68L91.44 25.68L91.44 2.80L85.76 2.80L85.76 0.24L100.04 0.24L100.04 2.80ZM125.12 3.08L124.04 5.40Q119.92 3 114.92 2.64L114.92 2.64L114.92 28.24L111.96 28.24L111.96 2.64Q107.04 2.96 102.80 5.40L102.80 5.40L101.72 3.08Q106.92 0 113.40 0L113.40 0Q120 0 125.12 3.08L125.12 3.08ZM141.44 28.48Q137.28 28.48 133.90 26.62Q130.52 24.76 128.62 21.52Q126.72 18.28 126.72 14.24L126.72 14.24Q126.72 10.20 128.62 6.96Q130.52 3.72 133.90 1.86Q137.28 0 141.44 0L141.44 0Q145.60 0 148.94 1.84Q152.28 3.68 154.20 6.94Q156.12 10.20 156.12 14.24L156.12 14.24Q156.12 18.28 154.20 21.54Q152.28 24.80 148.94 26.64Q145.60 28.48 141.44 28.48L141.44 28.48ZM141.44 25.84Q144.76 25.84 147.44 24.34Q150.12 22.84 151.64 20.18Q153.16 17.52 153.16 14.24L153.16 14.24Q153.16 10.96 151.64 8.30Q150.12 5.64 147.44 4.14Q144.76 2.64 141.44 2.64L141.44 2.64Q138.12 2.64 135.42 4.14Q132.72 5.64 131.18 8.30Q129.64 10.96 129.64 14.24L129.64 14.24Q129.64 17.52 131.18 20.18Q132.72 22.84 135.42 24.34Q138.12 25.84 141.44 25.84L141.44 25.84Z" transform="translate(12 77) scale(1)"></path></svg>