<?xml version="1.0" standalone="no"?>
<svg xmlns="http://www.w3.org/2000/svg" viewBox="0 0 76 70" width="76" height="70"><g fill="#bba364" color="#bba364" transform="translate(15.537 0) scale(0.7333334) "><svg width="60.0" height="60.0" x="0.0" y="0.0" viewBox="0 0 60 60"><g><path d="M59,60.5H1c-0.553,0-1-0.447-1-1v-6c0-0.553,0.447-1,1-1h58c0.553,0,1,0.447,1,1v6C60,60.053,59.553,60.5,59,60.5z M2,58.5   h56v-4H2V58.5z"></path><path d="M57,54.5H3c-0.553,0-1-0.447-1-1v-6c0-0.553,0.447-1,1-1h54c0.553,0,1,0.447,1,1v6C58,54.053,57.553,54.5,57,54.5z M4,52.5   h52v-4H4V52.5z"></path><path d="M57,23.5H3c-0.553,0-1-0.447-1-1v-4c0-0.553,0.447-1,1-1h54c0.553,0,1,0.447,1,1v4C58,23.053,57.553,23.5,57,23.5z M4,21.5   h52v-2H4V21.5z"></path><path d="M59,19.5H1c-0.445,0-0.839-0.296-0.962-0.727c-0.122-0.43,0.055-0.889,0.435-1.123l29-18c0.322-0.201,0.732-0.201,1.055,0   l29,18c0.381,0.234,0.557,0.693,0.436,1.123C59.838,19.204,59.445,19.5,59,19.5z M4.507,17.5h50.985L30,1.677L4.507,17.5z"></path><path d="M13,27.5H5c-0.553,0-1-0.447-1-1v-4c0-0.553,0.447-1,1-1h8c0.553,0,1,0.447,1,1v4C14,27.053,13.552,27.5,13,27.5z M6,25.5   h6v-2H6V25.5z"></path><path d="M55,27.5h-8c-0.553,0-1-0.447-1-1v-4c0-0.553,0.447-1,1-1h8c0.553,0,1,0.447,1,1v4C56,27.053,55.553,27.5,55,27.5z    M48,25.5h6v-2h-6V25.5z"></path><path d="M34,27.5h-8c-0.553,0-1-0.447-1-1v-4c0-0.553,0.447-1,1-1h8c0.553,0,1,0.447,1,1v4C35,27.053,34.553,27.5,34,27.5z    M27,25.5h6v-2h-6V25.5z"></path><path d="M13,48.5H5c-0.553,0-1-0.447-1-1v-4c0-0.553,0.447-1,1-1h8c0.553,0,1,0.447,1,1v4C14,48.053,13.552,48.5,13,48.5z M6,46.5   h6v-2H6V46.5z"></path><path d="M55,48.5h-8c-0.553,0-1-0.447-1-1v-4c0-0.553,0.447-1,1-1h8c0.553,0,1,0.447,1,1v4C56,48.053,55.553,48.5,55,48.5z    M48,46.5h6v-2h-6V46.5z"></path><path d="M34,48.5h-8c-0.553,0-1-0.447-1-1v-4c0-0.553,0.447-1,1-1h8c0.553,0,1,0.447,1,1v4C35,48.053,34.553,48.5,34,48.5z    M27,46.5h6v-2h-6V46.5z"></path><path d="M12,44.5H6c-0.553,0-1-0.447-1-1v-17c0-0.553,0.447-1,1-1h6c0.553,0,1,0.447,1,1v17C13,44.053,12.552,44.5,12,44.5z    M7,42.5h4v-15H7V42.5z"></path><path d="M33,44.5h-6c-0.553,0-1-0.447-1-1v-17c0-0.553,0.447-1,1-1h6c0.553,0,1,0.447,1,1v17C34,44.053,33.553,44.5,33,44.5z    M28,42.5h4v-15h-4V42.5z"></path><path d="M54,44.5h-6c-0.553,0-1-0.447-1-1v-17c0-0.553,0.447-1,1-1h6c0.553,0,1,0.447,1,1v17C55,44.053,54.553,44.5,54,44.5z    M49,42.5h4v-15h-4V42.5z"></path><g><path d="M30,15.5c-1.654,0-3-1.346-3-3c0-0.553,0.447-1,1-1s1,0.447,1,1c0,0.552,0.448,1,1,1c0.551,0,1-0.448,1-1s-0.449-1-1-1    c-1.654,0-3-1.346-3-3s1.346-3,3-3c1.655,0,3,1.346,3,3c0,0.553-0.447,1-1,1s-1-0.447-1-1c0-0.552-0.449-1-1-1    c-0.552,0-1,0.448-1,1s0.448,1,1,1c1.655,0,3,1.346,3,3S31.654,15.5,30,15.5z"></path><path d="M30,7.5c-0.553,0-1-0.447-1-1v-1c0-0.553,0.447-1,1-1c0.553,0,1,0.447,1,1v1C31,7.053,30.553,7.5,30,7.5z"></path><path d="M30,16.5c-0.553,0-1-0.447-1-1v-1c0-0.553,0.447-1,1-1c0.553,0,1,0.447,1,1v1C31,16.053,30.553,16.5,30,16.5z"></path></g></g></svg></g><path fill="#0a1256" fill-rule="nonzero" d="M0 16.94L0 0.14L6.84 0.14Q9.50 0.14 11.54 1.21Q13.58 2.28 14.71 4.19Q15.84 6.10 15.84 8.54L15.84 8.54Q15.84 10.99 14.71 12.90Q13.58 14.81 11.54 15.88Q9.50 16.94 6.84 16.94L6.84 16.94L0 16.94ZM1.78 15.41L6.74 15.41Q8.95 15.41 10.61 14.53Q12.26 13.66 13.18 12.11Q14.09 10.56 14.09 8.54L14.09 8.54Q14.09 6.53 13.18 4.98Q12.26 3.43 10.61 2.56Q8.95 1.68 6.74 1.68L6.74 1.68L1.78 1.68L1.78 15.41ZM31.15 13.68L31.82 15.02Q30.79 16.01 29.08 16.55Q27.36 17.09 25.27 17.09L25.27 17.09Q23.06 17.09 21.52 16.49Q19.97 15.89 19.19 14.83Q18.41 13.78 18.41 12.41L18.41 12.41Q18.41 10.90 19.31 9.84Q20.21 8.78 21.67 8.38L21.67 8.38Q20.47 7.92 19.80 6.92Q19.13 5.93 19.13 4.58L19.13 4.58Q19.13 3.31 19.86 2.27Q20.59 1.22 22.07 0.61Q23.54 0 25.63 0L25.63 0Q27.17 0 28.62 0.35Q30.07 0.70 31.10 1.34L31.10 1.34L30.55 2.76Q28.34 1.51 25.70 1.51L25.70 1.51Q23.38 1.51 22.14 2.40Q20.90 3.29 20.90 4.70L20.90 4.70Q20.90 6.12 21.90 6.89Q22.90 7.66 24.72 7.66L24.72 7.66L28.90 7.66L28.90 9.19L24.65 9.19Q22.58 9.19 21.38 9.97Q20.18 10.75 20.18 12.29L20.18 12.29Q20.18 13.80 21.49 14.69Q22.80 15.58 25.34 15.58L25.34 15.58Q27.12 15.58 28.66 15.07Q30.19 14.57 31.15 13.68L31.15 13.68ZM45.62 8.28Q47.28 8.64 48.18 9.71Q49.08 10.78 49.08 12.46L49.08 12.46Q49.08 14.62 47.48 15.78Q45.89 16.94 42.77 16.94L42.77 16.94L35.04 16.94L35.04 0.14L42.29 0.14Q45.10 0.14 46.64 1.27Q48.19 2.40 48.19 4.46L48.19 4.46Q48.19 5.86 47.51 6.83Q46.82 7.80 45.62 8.28L45.62 8.28ZM42.17 1.61L36.82 1.61L36.82 7.70L42.17 7.70Q44.21 7.70 45.31 6.92Q46.42 6.14 46.42 4.66L46.42 4.66Q46.42 3.17 45.31 2.39Q44.21 1.61 42.17 1.61L42.17 1.61ZM42.74 15.48Q45 15.48 46.15 14.71Q47.30 13.94 47.30 12.31L47.30 12.31Q47.30 9.17 42.74 9.17L42.74 9.17L36.82 9.17L36.82 15.48L42.74 15.48ZM60.02 1.68L56.62 1.68L56.62 15.41L60.02 15.41L60.02 16.94L51.46 16.94L51.46 15.41L54.86 15.41L54.86 1.68L51.46 1.68L51.46 0.14L60.02 0.14L60.02 1.68ZM75.07 1.85L74.42 3.24Q71.95 1.80 68.95 1.58L68.95 1.58L68.95 16.94L67.18 16.94L67.18 1.58Q64.22 1.78 61.68 3.24L61.68 3.24L61.03 1.85Q64.15 0 68.04 0L68.04 0Q72 0 75.07 1.85L75.07 1.85Z" transform="translate(0, 52)"></path></svg>