<?xml version="1.0" standalone="no"?>
<svg xmlns="http://www.w3.org/2000/svg" viewBox="0 0 303.84000000000003 17.928" width="303.84000000000003" height="17.928"><path fill="#0a1256" fill-rule="nonzero" d="M17.98 0.86Q20.86 0.86 22.46 2.52Q24.07 4.18 24.07 7.32L24.07 7.32L24.07 17.81L22.32 17.81L22.32 7.37Q22.32 4.92 21.08 3.68Q19.85 2.45 17.71 2.45L17.71 2.45Q15.46 2.45 14.18 3.76Q12.91 5.06 12.91 7.75L12.91 7.75L12.91 17.81L11.16 17.81L11.16 7.37Q11.16 4.92 9.96 3.68Q8.76 2.45 6.62 2.45L6.62 2.45Q4.34 2.45 3.06 3.76Q1.78 5.06 1.78 7.75L1.78 7.75L1.78 17.81L0 17.81L0 1.01L1.70 1.01L1.70 3.82Q2.40 2.38 3.77 1.62Q5.14 0.86 7.01 0.86L7.01 0.86Q8.98 0.86 10.38 1.69Q11.78 2.52 12.41 4.01L12.41 4.01Q13.13 2.47 14.58 1.67Q16.03 0.86 17.98 0.86L17.98 0.86ZM29.06 17.81L29.06 5.18L30.77 5.18L30.77 17.81L29.06 17.81ZM29.93 2.42Q29.40 2.42 29.04 2.06Q28.68 1.70 28.68 1.20L28.68 1.20Q28.68 0.72 29.04 0.36Q29.40 0 29.93 0L29.93 0Q30.46 0 30.82 0.35Q31.18 0.70 31.18 1.18L31.18 1.18Q31.18 1.70 30.82 2.06Q30.46 2.42 29.93 2.42L29.93 2.42ZM41.95 5.09Q44.33 5.09 45.73 6.47Q47.14 7.85 47.14 10.49L47.14 10.49L47.14 17.81L45.43 17.81L45.43 10.66Q45.43 8.69 44.45 7.66Q43.46 6.62 41.64 6.62L41.64 6.62Q39.60 6.62 38.41 7.84Q37.22 9.05 37.22 11.18L37.22 11.18L37.22 17.81L35.52 17.81L35.52 5.18L37.15 5.18L37.15 7.51Q37.85 6.36 39.08 5.72Q40.32 5.09 41.95 5.09L41.95 5.09ZM61.63 0L63.34 0L63.34 17.81L61.70 17.81L61.70 15.31Q60.94 16.58 59.68 17.26Q58.42 17.93 56.83 17.93L56.83 17.93Q55.06 17.93 53.62 17.11Q52.18 16.30 51.36 14.83Q50.54 13.37 50.54 11.50L50.54 11.50Q50.54 9.62 51.36 8.16Q52.18 6.70 53.62 5.89Q55.06 5.09 56.83 5.09L56.83 5.09Q58.37 5.09 59.60 5.72Q60.84 6.36 61.63 7.58L61.63 7.58L61.63 0ZM56.98 16.42Q58.30 16.42 59.36 15.80Q60.43 15.19 61.04 14.06Q61.66 12.94 61.66 11.50L61.66 11.50Q61.66 10.06 61.04 8.93Q60.43 7.80 59.36 7.19Q58.30 6.58 56.98 6.58L56.98 6.58Q55.63 6.58 54.56 7.19Q53.50 7.80 52.88 8.93Q52.27 10.06 52.27 11.50L52.27 11.50Q52.27 12.94 52.88 14.06Q53.50 15.19 54.56 15.80Q55.63 16.42 56.98 16.42L56.98 16.42ZM80.74 1.01L82.49 1.01L82.49 17.81L80.74 17.81L80.74 10.06L70.22 10.06L70.22 17.81L68.45 17.81L68.45 1.01L70.22 1.01L70.22 8.50L80.74 8.50L80.74 1.01ZM97.27 5.18L98.98 5.18L98.98 17.81L97.34 17.81L97.34 15.50Q96.67 16.66 95.50 17.29Q94.32 17.93 92.81 17.93L92.81 17.93Q90.34 17.93 88.91 16.55Q87.48 15.17 87.48 12.50L87.48 12.50L87.48 5.18L89.18 5.18L89.18 12.34Q89.18 14.33 90.17 15.36Q91.15 16.39 92.98 16.39L92.98 16.39Q94.97 16.39 96.12 15.18Q97.27 13.97 97.27 11.81L97.27 11.81L97.27 5.18ZM110.26 5.09Q112.03 5.09 113.47 5.89Q114.91 6.70 115.73 8.16Q116.54 9.62 116.54 11.50L116.54 11.50Q116.54 13.37 115.73 14.83Q114.91 16.30 113.47 17.11Q112.03 17.93 110.26 17.93L110.26 17.93Q108.67 17.93 107.41 17.26Q106.15 16.58 105.38 15.31L105.38 15.31L105.38 17.81L103.75 17.81L103.75 0L105.46 0L105.46 7.58Q106.25 6.36 107.48 5.72Q108.72 5.09 110.26 5.09L110.26 5.09ZM110.14 16.42Q111.46 16.42 112.54 15.80Q113.62 15.19 114.23 14.06Q114.84 12.94 114.84 11.50L114.84 11.50Q114.84 10.06 114.23 8.93Q113.62 7.80 112.54 7.19Q111.46 6.58 110.14 6.58L110.14 6.58Q108.79 6.58 107.72 7.19Q106.66 7.80 106.04 8.93Q105.43 10.06 105.43 11.50L105.43 11.50Q105.43 12.94 106.04 14.06Q106.66 15.19 107.72 15.80Q108.79 16.42 110.14 16.42L110.14 16.42ZM137.26 9.14Q138.91 9.50 139.81 10.57Q140.71 11.64 140.71 13.32L140.71 13.32Q140.71 15.48 139.12 16.64Q137.52 17.81 134.40 17.81L134.40 17.81L126.67 17.81L126.67 1.01L133.92 1.01Q136.73 1.01 138.28 2.14Q139.82 3.26 139.82 5.33L139.82 5.33Q139.82 6.72 139.14 7.69Q138.46 8.66 137.26 9.14L137.26 9.14ZM133.80 2.47L128.45 2.47L128.45 8.57L133.80 8.57Q135.84 8.57 136.94 7.79Q138.05 7.01 138.05 5.52L138.05 5.52Q138.05 4.03 136.94 3.25Q135.84 2.47 133.80 2.47L133.80 2.47ZM134.38 16.34Q136.63 16.34 137.78 15.58Q138.94 14.81 138.94 13.18L138.94 13.18Q138.94 10.03 134.38 10.03L134.38 10.03L128.45 10.03L128.45 16.34L134.38 16.34ZM146.04 7.66Q146.64 6.38 147.83 5.74Q149.02 5.09 150.77 5.09L150.77 5.09L150.77 6.74L150.36 6.72Q148.37 6.72 147.24 7.94Q146.11 9.17 146.11 11.38L146.11 11.38L146.11 17.81L144.41 17.81L144.41 5.18L146.04 5.18L146.04 7.66ZM158.88 17.93Q157.06 17.93 155.59 17.10Q154.13 16.27 153.29 14.81Q152.45 13.34 152.45 11.50L152.45 11.50Q152.45 9.65 153.29 8.18Q154.13 6.72 155.59 5.90Q157.06 5.09 158.88 5.09L158.88 5.09Q160.70 5.09 162.17 5.90Q163.63 6.72 164.46 8.18Q165.29 9.65 165.29 11.50L165.29 11.50Q165.29 13.34 164.46 14.81Q163.63 16.27 162.17 17.10Q160.70 17.93 158.88 17.93L158.88 17.93ZM158.88 16.42Q160.22 16.42 161.29 15.80Q162.36 15.19 162.96 14.06Q163.56 12.94 163.56 11.50L163.56 11.50Q163.56 10.06 162.96 8.93Q162.36 7.80 161.29 7.19Q160.22 6.58 158.88 6.58L158.88 6.58Q157.54 6.58 156.47 7.19Q155.40 7.80 154.79 8.93Q154.18 10.06 154.18 11.50L154.18 11.50Q154.18 12.94 154.79 14.06Q155.40 15.19 156.47 15.80Q157.54 16.42 158.88 16.42L158.88 16.42ZM174.38 15.82L174.98 17.04Q174.50 17.47 173.81 17.70Q173.11 17.93 172.34 17.93L172.34 17.93Q170.57 17.93 169.61 16.97Q168.65 16.01 168.65 14.26L168.65 14.26L168.65 2.42L170.35 2.42L170.35 5.18L174.17 5.18L174.17 6.62L170.35 6.62L170.35 14.16Q170.35 15.29 170.90 15.88Q171.46 16.46 172.51 16.46L172.51 16.46Q173.66 16.46 174.38 15.82L174.38 15.82ZM184.51 5.09Q186.89 5.09 188.29 6.47Q189.70 7.85 189.70 10.49L189.70 10.49L189.70 17.81L187.99 17.81L187.99 10.66Q187.99 8.69 187.01 7.66Q186.02 6.62 184.20 6.62L184.20 6.62Q182.16 6.62 180.97 7.84Q179.78 9.05 179.78 11.18L179.78 11.18L179.78 17.81L178.08 17.81L178.08 0L179.78 0L179.78 7.39Q180.48 6.29 181.70 5.69Q182.93 5.09 184.51 5.09L184.51 5.09ZM199.78 16.42Q200.95 16.42 201.95 16.00Q202.94 15.58 203.64 14.76L203.64 14.76L204.60 15.86Q203.76 16.87 202.51 17.40Q201.26 17.93 199.75 17.93L199.75 17.93Q197.81 17.93 196.30 17.10Q194.78 16.27 193.94 14.81Q193.10 13.34 193.10 11.50L193.10 11.50Q193.10 9.65 193.91 8.18Q194.71 6.72 196.13 5.90Q197.54 5.09 199.34 5.09L199.34 5.09Q201.02 5.09 202.38 5.86Q203.74 6.62 204.54 7.99Q205.34 9.36 205.39 11.11L205.39 11.11L195.02 13.13Q195.50 14.66 196.76 15.54Q198.02 16.42 199.78 16.42L199.78 16.42ZM199.34 6.55Q198.02 6.55 196.98 7.16Q195.94 7.78 195.35 8.87Q194.76 9.96 194.76 11.38L194.76 11.38Q194.76 11.74 194.78 11.90L194.78 11.90L203.69 10.18Q203.40 8.59 202.22 7.57Q201.05 6.55 199.34 6.55L199.34 6.55ZM210.50 7.66Q211.10 6.38 212.29 5.74Q213.48 5.09 215.23 5.09L215.23 5.09L215.23 6.74L214.82 6.72Q212.83 6.72 211.70 7.94Q210.58 9.17 210.58 11.38L210.58 11.38L210.58 17.81L208.87 17.81L208.87 5.18L210.50 5.18L210.50 7.66ZM217.90 7.34L217.78 1.01L219.29 1.01L219.17 7.34L217.90 7.34ZM226.73 17.93Q225.19 17.93 223.79 17.48Q222.38 17.04 221.59 16.37L221.59 16.37L222.36 15.02Q223.15 15.65 224.35 16.04Q225.55 16.44 226.85 16.44L226.85 16.44Q228.58 16.44 229.40 15.90Q230.23 15.36 230.23 14.38L230.23 14.38Q230.23 13.68 229.78 13.28Q229.32 12.89 228.62 12.68Q227.93 12.48 226.78 12.29L226.78 12.29Q225.24 12 224.30 11.70Q223.37 11.40 222.71 10.68Q222.05 9.96 222.05 8.69L222.05 8.69Q222.05 7.10 223.37 6.10Q224.69 5.09 227.04 5.09L227.04 5.09Q228.26 5.09 229.49 5.41Q230.71 5.74 231.50 6.26L231.50 6.26L230.76 7.63Q229.20 6.55 227.04 6.55L227.04 6.55Q225.41 6.55 224.58 7.13Q223.75 7.70 223.75 8.64L223.75 8.64Q223.75 9.36 224.22 9.79Q224.69 10.22 225.38 10.43Q226.08 10.63 227.30 10.85L227.30 10.85Q228.82 11.14 229.73 11.42Q230.64 11.71 231.29 12.41Q231.94 13.10 231.94 14.33L231.94 14.33Q231.94 15.98 230.56 16.96Q229.18 17.93 226.73 17.93L226.73 17.93ZM252.31 9.14Q253.97 9.50 254.87 10.57Q255.77 11.64 255.77 13.32L255.77 13.32Q255.77 15.48 254.17 16.64Q252.58 17.81 249.46 17.81L249.46 17.81L241.73 17.81L241.73 1.01L248.98 1.01Q251.78 1.01 253.33 2.14Q254.88 3.26 254.88 5.33L254.88 5.33Q254.88 6.72 254.20 7.69Q253.51 8.66 252.31 9.14L252.31 9.14ZM248.86 2.47L243.50 2.47L243.50 8.57L248.86 8.57Q250.90 8.57 252.00 7.79Q253.10 7.01 253.10 5.52L253.10 5.52Q253.10 4.03 252.00 3.25Q250.90 2.47 248.86 2.47L248.86 2.47ZM249.43 16.34Q251.69 16.34 252.84 15.58Q253.99 14.81 253.99 13.18L253.99 13.18Q253.99 10.03 249.43 10.03L249.43 10.03L243.50 10.03L243.50 16.34L249.43 16.34ZM269.28 5.18L270.98 5.18L270.98 17.81L269.35 17.81L269.35 15.31Q268.58 16.58 267.32 17.26Q266.06 17.93 264.48 17.93L264.48 17.93Q262.70 17.93 261.26 17.11Q259.82 16.30 259.01 14.83Q258.19 13.37 258.19 11.50L258.19 11.50Q258.19 9.62 259.01 8.16Q259.82 6.70 261.26 5.89Q262.70 5.09 264.48 5.09L264.48 5.09Q266.02 5.09 267.25 5.72Q268.49 6.36 269.28 7.58L269.28 7.58L269.28 5.18ZM264.62 16.42Q265.94 16.42 267.01 15.80Q268.08 15.19 268.69 14.06Q269.30 12.94 269.30 11.50L269.30 11.50Q269.30 10.06 268.69 8.93Q268.08 7.80 267.01 7.19Q265.94 6.58 264.62 6.58L264.62 6.58Q263.28 6.58 262.21 7.19Q261.14 7.80 260.53 8.93Q259.92 10.06 259.92 11.50L259.92 11.50Q259.92 12.94 260.53 14.06Q261.14 15.19 262.21 15.80Q263.28 16.42 264.62 16.42L264.62 16.42ZM282.17 5.09Q284.54 5.09 285.95 6.47Q287.35 7.85 287.35 10.49L287.35 10.49L287.35 17.81L285.65 17.81L285.65 10.66Q285.65 8.69 284.66 7.66Q283.68 6.62 281.86 6.62L281.86 6.62Q279.82 6.62 278.63 7.84Q277.44 9.05 277.44 11.18L277.44 11.18L277.44 17.81L275.74 17.81L275.74 5.18L277.37 5.18L277.37 7.51Q278.06 6.36 279.30 5.72Q280.54 5.09 282.17 5.09L282.17 5.09ZM301.75 17.81L296.66 11.47L293.69 14.21L293.69 17.81L291.98 17.81L291.98 0L293.69 0L293.69 12.07L301.22 5.18L303.34 5.18L297.94 10.34L303.84 17.81L301.75 17.81Z"></path></svg>